<svg width="38" height="38" viewBox="0 0 38 38" fill="none" xmlns="http://www.w3.org/2000/svg">
<path d="M34.5262 21.5407C35.9322 12.9644 30.1195 4.87218 21.5432 3.46622C12.9669 2.06026 4.87465 7.87297 3.46869 16.4493C2.06273 25.0256 7.87543 33.1178 16.4517 34.5237C25.028 35.9297 33.1202 30.117 34.5262 21.5407Z" fill="#020C1A" stroke="white" stroke-width="2" stroke-miterlimit="10"/>
<path d="M15.1752 16.4819H12.2911V25.7989H15.1752V16.4819Z" fill="white"/>
<path d="M13.722 15.2654C14.0642 15.2721 14.4008 15.1768 14.6886 14.9915C14.9765 14.8062 15.2027 14.5394 15.3383 14.2251C15.474 13.9108 15.513 13.5632 15.4504 13.2266C15.3877 12.8901 15.2263 12.5798 14.9866 12.3353C14.7469 12.0909 14.4399 11.9233 14.1047 11.854C13.7694 11.7847 13.4211 11.8168 13.1042 11.9463C12.7872 12.0757 12.516 12.2965 12.3251 12.5807C12.1341 12.8648 12.0321 13.1994 12.0321 13.5417C12.0276 13.7665 12.068 13.9898 12.1509 14.1988C12.2338 14.4077 12.3576 14.598 12.5149 14.7586C12.6723 14.9191 12.8601 15.0466 13.0674 15.1336C13.2746 15.2206 13.4972 15.2654 13.722 15.2654Z" fill="white"/>
<path d="M19.7886 20.938C19.7886 19.6311 20.3913 18.8481 21.5461 18.8481C22.6051 18.8481 23.1177 19.5973 23.1177 20.938V25.833H25.9849V19.9015C25.9849 17.4061 24.571 16.2006 22.6051 16.2006C22.0427 16.1913 21.4875 16.3282 20.9938 16.5977C20.5002 16.8673 20.0849 17.2603 19.7886 17.7384V16.4823H17.0228V25.8049H19.7886V20.938Z" fill="white"/>
</svg>
