<svg width="34" height="26" viewBox="0 0 34 26" fill="none" xmlns="http://www.w3.org/2000/svg">
<path d="M0.82682 0.874908C5.19983 0.537592 9.58896 1.2839 13.5949 3.04592C14.3681 3.37422 15.399 4.2691 15.4259 4.93629C15.6836 11.82 15.6084 18.7037 15.5332 25.9157C13.9976 25.4762 12.9936 25.1108 11.9519 24.9096C9.1116 24.3801 6.26053 23.8029 3.3987 23.374C0.923472 23.0034 0.0590169 22.5692 0.0321705 20.6047C-0.0483685 14.6423 0.0321732 8.67997 0.101974 2.71233C0.107343 2.21458 0.477818 1.71684 0.82682 0.874908Z" fill="white"/>
<path d="M18.2877 25.4233C18.1664 24.8381 18.0856 24.2454 18.0461 23.6494C18.0461 17.9571 18.1212 12.2595 17.987 6.56192C17.9387 4.44386 18.8085 3.23656 20.7576 2.65409C24.5858 1.51034 28.4302 0.403649 32.8706 0.954345C33.1337 1.96042 33.5955 2.96121 33.6116 3.962C33.6868 9.25715 33.6116 14.5523 33.6545 19.8475C33.6545 21.4784 33.3163 22.9187 31.4424 23.2522C27.1362 23.9883 22.8086 24.6555 18.2877 25.4233Z" fill="white"/>
</svg>
