<svg width="35" height="26" viewBox="0 0 35 26" fill="none" xmlns="http://www.w3.org/2000/svg">
<path d="M11.7993 0.790039C15.2517 2.9081 18.688 3.014 22.221 1.31955C22.6759 1.04725 23.204 0.917966 23.7352 0.948895C26.8547 1.64786 29.7273 2.46331 31.3112 5.81514C33.4824 10.2127 34.5189 15.0709 34.3287 19.9585C34.2643 21.3194 33.7918 22.3096 32.5622 22.9185C30.4897 23.9352 28.4118 24.936 26.1889 26.0109C25.5553 25.0736 25.1151 24.4223 24.5459 23.5804L26.8601 21.4623C23.4291 21.9918 20.4975 22.7279 17.5659 22.7226C14.6343 22.7173 11.6597 21.9548 8.17502 22.103L10.6932 23.2945C10.0381 24.2794 9.61935 24.9412 9.2274 25.4972C8.77638 25.5502 8.47033 25.6879 8.25556 25.5978C-0.496348 22.0501 0.0835357 22.5161 1.19497 12.8895C1.4527 10.6708 2.62856 8.53156 3.51986 6.4082C4.68499 3.62295 6.59109 1.64256 9.88245 1.31426C10.5357 1.19507 11.1771 1.01966 11.7993 0.790039ZM23.0747 11.1685C22.1875 11.2836 21.3775 11.7263 20.8085 12.4074C20.2394 13.0885 19.9537 13.9572 20.0089 14.8381C20.0816 15.7216 20.5046 16.5411 21.1861 17.1191C21.8676 17.697 22.7526 17.9866 23.6492 17.9252C24.4619 17.7858 25.1968 17.3633 25.7201 16.7345C26.2433 16.1057 26.5202 15.3124 26.5003 14.4992C26.4252 12.6035 24.8359 11.0626 23.0909 11.1685H23.0747ZM11.8583 17.941C12.7508 17.8719 13.5797 17.4584 14.1648 16.7901C14.7499 16.1219 15.044 15.253 14.9833 14.3721C14.9688 13.9365 14.8667 13.5081 14.6828 13.1117C14.499 12.7154 14.2371 12.359 13.9123 12.0634C13.5876 11.7678 13.2065 11.5388 12.7912 11.3897C12.3759 11.2406 11.9347 11.1744 11.4932 11.195C10.6765 11.3095 9.9301 11.7135 9.3935 12.3313C8.8569 12.9492 8.5669 13.7387 8.57772 14.5522C8.56339 14.9894 8.63783 15.4252 8.79668 15.8337C8.95553 16.2422 9.19557 16.6153 9.50271 16.931C9.80985 17.2467 10.1779 17.4987 10.5852 17.6722C10.9925 17.8456 11.4308 17.937 11.8744 17.941H11.8583Z" fill="white"/>
</svg>
