<svg width="26" height="25" viewBox="0 0 26 25" fill="none" xmlns="http://www.w3.org/2000/svg">
<path d="M25.6738 24.9827H20.8039C20.8039 22.3934 20.8629 19.9894 20.8039 17.5695C20.7609 16.3728 20.7448 15.0437 20.2025 14.0376C19.9318 13.5966 19.5657 13.2198 19.1305 12.9343C18.6952 12.6487 18.2014 12.4614 17.6843 12.3856C17.1626 12.4197 16.6555 12.5704 16.2016 12.8264C15.7476 13.0823 15.3587 13.4368 15.0641 13.8629C14.4413 14.9908 14.291 16.4363 14.2158 17.7654C14.0923 20.0476 14.1836 22.3405 14.1836 24.8927H9.41028V8.47773C11.3164 8.30829 13.201 7.50342 14.3178 9.22964C16.6051 8.82721 18.7099 8.27122 20.8361 8.13355C22.8174 8.00647 24.2295 9.16081 24.9275 10.9929C25.3235 11.852 25.5721 12.77 25.6631 13.7094C25.7275 17.3842 25.6738 21.0273 25.6738 24.9827Z" fill="white"/>
<path d="M5.32426 24.9824H0.304004C0.062387 19.5813 0.228822 14.212 0.191238 8.56738H5.32426V24.9824Z" fill="white"/>
<path d="M5.68928 2.59468C5.70058 3.32934 5.4304 4.04116 4.93272 4.58793C4.43503 5.1347 3.74649 5.47616 3.00464 5.54408C2.25671 5.53246 1.53969 5.24776 0.992249 4.74504C0.444806 4.24232 0.105808 3.55728 0.0407966 2.82237C0.0153846 2.45579 0.0676401 2.08801 0.1942 1.74243C0.320759 1.39685 0.518864 1.08103 0.775925 0.815068C1.03299 0.549104 1.34338 0.338815 1.68733 0.197588C2.03128 0.056362 2.40127 -0.0127154 2.77377 -0.00524602C4.49194 -0.0529024 5.65169 0.97436 5.68928 2.59468Z" fill="white"/>
</svg>
