<svg width="29" height="23" viewBox="0 0 29 23" fill="none" xmlns="http://www.w3.org/2000/svg">
<path d="M5.93365 7.0082C5.2299 10.3723 5.14262 13.8334 5.67593 17.2279C5.94977 18.8164 7.38872 20.2408 8.41962 21.9247H1.1872C1.21942 21.6758 1.15499 21.3475 1.28922 21.2151C3.70539 18.8164 4.47322 15.92 4.09737 12.6528C3.96851 11.4365 3.96851 10.2102 4.09737 8.99388C4.43026 5.85386 3.81817 3.05801 0.746948 0.627535H8.91896L15.2493 13.7701C18.0521 9.36455 18.9165 4.64127 21.322 0.532227H28.9893C26.2671 2.31669 26.1704 4.55125 26.251 6.88641C26.3476 9.59753 26.251 12.3139 26.2778 15.0304C26.2778 17.4079 25.7409 19.9337 28.9141 21.9511H18.3259C21.9824 17.5456 19.9367 12.7005 20.1891 8.06723C18.1273 9.95231 17.6118 12.5522 16.597 14.8927C15.5822 17.2331 14.6909 19.5789 13.4238 22.7136L5.93365 7.0082Z" fill="white"/>
</svg>
