<svg width="26" height="22" viewBox="0 0 26 22" fill="none" xmlns="http://www.w3.org/2000/svg">
<path d="M0.474112 9.65559L25.3284 0.246094C25.613 1.16216 25.9835 1.69697 25.8922 2.13117C24.464 8.55949 23.3955 15.0778 21.4894 21.4956C18.1712 20.966 16.598 18.3185 13.8704 17.3124L10.5361 19.6952C9.75757 16.4599 10.4234 14.0717 13.1026 12.0543C15.9829 9.85591 18.5778 7.31633 20.829 4.49281C20.1327 4.70721 19.4557 4.97819 18.8048 5.30297C15.9644 7.0133 13.0275 8.60185 10.3804 10.5664C7.87832 12.4303 5.44605 12.7744 2.67014 11.493C1.92918 11.1541 1.18285 10.8311 0.436523 10.5028L0.474112 9.65559Z" fill="white"/>
</svg>
