<svg width="28" height="24" viewBox="0 0 28 24" fill="none" xmlns="http://www.w3.org/2000/svg">
<path d="M1.03917 22.0503C3.48219 21.0601 6.06481 21.2136 7.73465 19.1962L3.04729 15.9185L4.33591 14.7535L0.66333 10.3215L2.37075 8.96594C1.25395 6.95378 0.121034 4.80395 1.60295 2.00281C5.07687 5.38641 8.92126 7.52036 13.861 7.82748C14.013 6.81676 14.2264 5.81594 14.4999 4.83042C15.7563 1.21383 19.2571 -0.406491 22.7847 1.33562C24.4868 2.17754 25.8828 2.19343 27.3486 1.42034C28.213 2.32581 25.7378 3.51193 27.4828 3.93554C26.9459 5.68823 26.1351 7.3668 25.9096 9.12479C24.3901 20.8642 12.4757 27.2501 1.03917 22.0503Z" fill="white"/>
</svg>
