<svg width="192" height="172" viewBox="0 0 192 172" fill="none" xmlns="http://www.w3.org/2000/svg">
<g clip-path="url(#clip0_2855_15099)">
<path d="M145.626 79.2137H125.952C131.161 72.4635 133.988 64.1686 133.988 55.632C133.988 47.0953 131.161 38.8004 125.952 32.0502H145.626C149.053 39.4363 150.828 47.4849 150.828 55.632C150.828 63.779 149.053 71.8276 145.626 79.2137ZM95.5264 79.2137C90.8715 79.2315 86.3161 77.8629 82.4372 75.2813C78.5584 72.6997 75.5307 69.0212 73.7376 64.7118C71.9446 60.4025 71.4669 55.6562 72.365 51.0743C73.2632 46.4924 75.4968 42.281 78.7829 38.9736C82.0691 35.6663 86.2598 33.4118 90.8243 32.4958C95.3887 31.5798 100.122 32.0434 104.423 33.8281C108.725 35.6127 112.401 38.638 114.988 42.5207C117.574 46.4034 118.953 50.9687 118.95 55.6384C118.957 61.8753 116.497 67.8602 112.111 72.2799C107.724 76.6997 101.769 79.1933 95.552 79.2137H95.5264ZM57.1264 55.6384C57.1051 62.1026 58.7057 68.4682 61.7807 74.1489C64.8558 79.8296 69.3064 84.6426 74.7227 88.1446C80.1389 91.6467 86.3465 93.7251 92.7737 94.1884C99.2009 94.6518 105.641 93.4851 111.501 90.796V108.927C103.219 111.421 94.4702 111.938 85.9535 110.437C77.4369 108.936 69.3882 105.458 62.4501 100.28C55.512 95.1027 49.8768 88.3696 45.9944 80.6185C42.1121 72.8674 40.0902 64.313 40.0902 55.6384C40.0902 46.9638 42.1121 38.4094 45.9944 30.6582C49.8768 22.9071 55.512 16.174 62.4501 10.9966C69.3882 5.81922 77.4369 2.34098 85.9535 0.839646C94.4702 -0.661692 103.219 -0.144533 111.501 2.34983V20.545C105.642 17.8563 99.2031 16.6896 92.7769 17.1523C86.3508 17.615 80.144 19.6923 74.7281 23.1929C69.3122 26.6934 64.8613 31.5047 61.7854 37.1836C58.7094 42.8626 57.1072 49.2266 57.1264 55.6897V55.6384Z" fill="#FBFBF9"/>
<path d="M118.976 172.064C118.773 172.067 118.571 172.028 118.383 171.948C118.196 171.869 118.027 171.751 117.888 171.602L110.566 164.128C110.352 163.912 110.208 163.635 110.154 163.335C110.099 163.035 110.136 162.725 110.259 162.446C110.37 162.177 110.559 161.947 110.8 161.784C111.041 161.622 111.325 161.535 111.616 161.535H114.726C115.042 161.583 115.364 161.563 115.671 161.475C115.978 161.387 116.262 161.233 116.504 161.025C116.747 160.816 116.941 160.557 117.074 160.266C117.208 159.975 117.277 159.659 117.277 159.339C117.277 159.019 117.208 158.702 117.074 158.411C116.941 158.12 116.747 157.862 116.504 157.653C116.262 157.445 115.978 157.291 115.671 157.203C115.364 157.115 115.042 157.095 114.726 157.143H108.826C108.826 157.143 108.826 157.143 108.826 157.246V170.536C108.845 170.746 108.82 170.957 108.754 171.157C108.687 171.357 108.579 171.54 108.438 171.696C108.296 171.852 108.124 171.976 107.932 172.061C107.739 172.146 107.532 172.19 107.322 172.19C107.112 172.19 106.904 172.146 106.712 172.061C106.519 171.976 106.347 171.852 106.206 171.696C106.064 171.54 105.956 171.357 105.89 171.157C105.823 170.957 105.798 170.746 105.818 170.536V157.182C105.814 156.369 106.131 155.587 106.699 155.008C107.267 154.428 108.041 154.097 108.851 154.087H114.752C116.161 154.038 117.533 154.551 118.566 155.514C119.6 156.476 120.212 157.81 120.269 159.223C120.223 160.562 119.687 161.838 118.764 162.806C117.841 163.775 116.595 164.369 115.264 164.475L120.064 169.38C120.22 169.531 120.343 169.713 120.424 169.914C120.506 170.115 120.544 170.332 120.538 170.549C120.529 170.752 120.48 170.951 120.392 171.135C120.304 171.318 120.179 171.481 120.026 171.614C119.743 171.89 119.369 172.05 118.976 172.064ZM160.819 172.064C159.72 172.134 158.618 171.98 157.58 171.611C156.542 171.243 155.588 170.667 154.778 169.919C154.024 169.062 153.446 168.063 153.077 166.982C152.708 165.9 152.555 164.756 152.627 163.615V155.499C152.622 155.303 152.656 155.107 152.727 154.924C152.797 154.74 152.904 154.572 153.039 154.43C153.175 154.288 153.337 154.175 153.517 154.096C153.697 154.017 153.89 153.975 154.086 153.971C154.286 153.971 154.483 154.011 154.667 154.088C154.851 154.165 155.019 154.278 155.159 154.42C155.299 154.562 155.41 154.73 155.486 154.916C155.561 155.101 155.599 155.299 155.597 155.499V163.538C155.597 167.274 157.235 168.956 160.883 168.956C164.531 168.956 166.182 167.326 166.195 163.525V155.499C166.176 155.291 166.2 155.082 166.266 154.883C166.333 154.685 166.439 154.503 166.58 154.349C166.72 154.194 166.891 154.071 167.081 153.986C167.272 153.902 167.478 153.858 167.686 153.858C167.895 153.858 168.101 153.902 168.291 153.986C168.482 154.071 168.653 154.194 168.793 154.349C168.934 154.503 169.04 154.685 169.106 154.883C169.173 155.082 169.197 155.291 169.178 155.499V163.538C169.178 168.982 166.234 171.987 160.883 171.987L160.819 172.064ZM190.515 172.064C190.316 172.066 190.118 172.028 189.933 171.952C189.749 171.877 189.581 171.765 189.439 171.625C189.297 171.484 189.185 171.316 189.108 171.132C189.031 170.947 188.992 170.749 188.992 170.549V157.066C188.992 157.066 188.992 157.066 188.915 157.066L185.344 162.973C185.088 163.429 184.716 163.809 184.267 164.075C183.817 164.341 183.306 164.483 182.784 164.488C182.265 164.478 181.757 164.335 181.309 164.072C180.86 163.809 180.487 163.435 180.224 162.986L176.678 157.092C176.672 157.075 176.662 157.061 176.648 157.05C176.635 157.038 176.619 157.031 176.602 157.028V170.459C176.602 170.857 176.444 171.239 176.163 171.521C175.882 171.803 175.501 171.961 175.104 171.961C174.707 171.961 174.326 171.803 174.045 171.521C173.764 171.239 173.606 170.857 173.606 170.459V157.066C173.595 156.393 173.807 155.735 174.209 155.196C174.611 154.658 175.18 154.269 175.827 154.09C176.474 153.912 177.162 153.955 177.782 154.213C178.402 154.47 178.919 154.928 179.251 155.512L182.746 161.406L182.81 161.47C182.81 161.47 182.81 161.47 182.81 161.393L186.355 155.512C186.684 154.921 187.202 154.457 187.824 154.195C188.447 153.933 189.139 153.887 189.791 154.066C190.442 154.245 191.015 154.638 191.418 155.182C191.82 155.725 192.03 156.389 192.013 157.066V170.472C192.014 170.67 191.977 170.867 191.903 171.051C191.828 171.234 191.718 171.401 191.579 171.542C191.439 171.683 191.274 171.795 191.091 171.871C190.909 171.948 190.713 171.987 190.515 171.987V172.064ZM146.586 172.064C146.389 172.062 146.195 172.022 146.013 171.945C145.832 171.868 145.668 171.755 145.53 171.615C145.393 171.474 145.284 171.307 145.21 171.125C145.136 170.942 145.099 170.746 145.101 170.549V155.512C145.101 155.315 145.14 155.12 145.215 154.937C145.29 154.755 145.4 154.59 145.539 154.45C145.678 154.31 145.844 154.2 146.025 154.124C146.207 154.049 146.402 154.01 146.598 154.01C146.795 154.01 146.99 154.049 147.172 154.124C147.353 154.2 147.518 154.31 147.657 154.45C147.796 154.59 147.907 154.755 147.982 154.937C148.057 155.12 148.096 155.315 148.096 155.512V170.472C148.096 170.873 147.937 171.259 147.654 171.543C147.37 171.827 146.986 171.987 146.586 171.987V172.064ZM92.4544 172.064C86.7584 172.064 82.9312 168.443 82.9312 163.075C82.9312 157.708 86.848 154.087 92.4544 154.087C98.0608 154.087 101.965 157.708 101.965 163.075C101.965 168.443 98.1376 171.987 92.4544 171.987V172.064ZM92.4544 157.117C88.3712 157.117 85.9264 159.339 85.9264 163.063C85.9264 166.786 88.3712 169.034 92.4544 169.034C96.5376 169.034 98.9696 166.799 98.9696 163.063C98.9696 159.326 96.5248 157.04 92.4544 157.04V157.117ZM72.5504 172.064C66.8544 172.064 63.0272 168.443 63.0272 163.075C63.0272 157.708 66.944 154.087 72.5504 154.087C75.0451 153.995 77.4821 154.853 79.3728 156.488C79.5208 156.62 79.6412 156.779 79.7269 156.958C79.8127 157.136 79.862 157.33 79.872 157.528C79.8859 157.727 79.8605 157.927 79.7972 158.116C79.7339 158.306 79.6339 158.48 79.5031 158.631C79.3723 158.781 79.2132 158.904 79.0348 158.992C78.8565 159.081 78.6625 159.133 78.464 159.146C78.2631 159.159 78.0618 159.13 77.8725 159.062C77.6831 158.993 77.5098 158.886 77.3632 158.748C76.0128 157.634 74.2964 157.066 72.5504 157.156C68.4672 157.156 66.0352 159.377 66.0352 163.101C66.0352 166.825 68.4672 169.046 72.5504 169.046C74.299 169.139 76.0177 168.565 77.3632 167.441C77.5121 167.307 77.6861 167.204 77.8751 167.138C78.064 167.072 78.2642 167.044 78.464 167.056C78.8612 167.082 79.2329 167.261 79.5008 167.557C79.7597 167.864 79.8908 168.26 79.867 168.661C79.8431 169.063 79.6662 169.44 79.3728 169.714C77.4694 171.314 75.0299 172.127 72.5504 171.987V172.064ZM56.3072 172.064C55.789 172.057 55.2813 171.916 54.8329 171.655C54.3846 171.394 54.0107 171.022 53.7472 170.574L45.7856 157.092V170.523C45.7856 170.921 45.6278 171.304 45.347 171.585C45.0661 171.867 44.6852 172.025 44.288 172.025C43.8908 172.025 43.5099 171.867 43.229 171.585C42.9482 171.304 42.7904 170.921 42.7904 170.523V157.066C42.7733 156.389 42.9829 155.725 43.3857 155.182C43.7885 154.638 44.3613 154.245 45.0126 154.066C45.664 153.887 46.3563 153.933 46.979 154.195C47.6017 154.457 48.1189 154.921 48.448 155.512L56.32 168.918V168.854V155.512C56.32 155.114 56.4778 154.732 56.7586 154.45C57.0395 154.168 57.4204 154.01 57.8176 154.01C58.2148 154.01 58.5957 154.168 58.8766 154.45C59.1574 154.732 59.3152 155.114 59.3152 155.512V168.892C59.3188 169.701 59.0054 170.478 58.4427 171.057C57.88 171.636 57.113 171.97 56.3072 171.987V172.064ZM29.4272 172.064C23.744 172.064 19.9168 168.443 19.9168 163.075C19.9168 157.708 23.8208 154.087 29.4272 154.087C35.0336 154.087 38.9504 157.708 38.9504 163.075C38.9504 168.443 35.1104 171.987 29.4144 171.987L29.4272 172.064ZM29.4272 157.117C25.344 157.117 22.912 159.339 22.912 163.063C22.912 166.786 25.344 169.034 29.4272 169.034C33.5104 169.034 35.9424 166.799 35.9424 163.063C35.9424 159.326 33.4976 157.04 29.4144 157.04L29.4272 157.117ZM9.52321 172.064C3.84001 172.064 0.0128174 168.443 0.0128174 163.075C0.0128174 157.708 3.92961 154.087 9.52321 154.087C12.0218 153.995 14.4631 154.852 16.3584 156.488C16.6529 156.757 16.8318 157.13 16.8576 157.528C16.8697 157.729 16.842 157.93 16.7761 158.119C16.7102 158.309 16.6074 158.483 16.4736 158.633C16.3443 158.784 16.1858 158.908 16.0076 158.996C15.8294 159.084 15.6352 159.135 15.4368 159.146C15.2379 159.159 15.0386 159.13 14.8514 159.061C14.6641 158.993 14.493 158.886 14.3488 158.748C12.9945 157.632 11.2734 157.064 9.52321 157.156C5.45281 157.156 3.00801 159.377 3.00801 163.101C3.00801 166.825 5.45281 169.046 9.52321 169.046C11.2759 169.141 12.9994 168.567 14.3488 167.441C14.4945 167.306 14.6662 167.202 14.8532 167.136C15.0403 167.07 15.2389 167.043 15.4368 167.056C15.8347 167.079 16.2074 167.259 16.4736 167.557C16.7371 167.861 16.8724 168.256 16.8509 168.659C16.8294 169.061 16.6528 169.44 16.3584 169.714C14.4465 171.317 11.998 172.13 9.51042 171.987L9.52321 172.064ZM131.738 171.974H127.296C126.894 171.971 126.497 171.888 126.127 171.731C125.757 171.573 125.422 171.344 125.14 171.057C124.859 170.77 124.636 170.429 124.485 170.056C124.335 169.682 124.259 169.282 124.262 168.879V157.323C124.259 156.92 124.335 156.52 124.485 156.146C124.636 155.773 124.859 155.433 125.14 155.145C125.422 154.858 125.757 154.629 126.127 154.472C126.497 154.314 126.894 154.232 127.296 154.228H131.546C134.771 154.228 137.242 154.986 138.842 156.591C140.285 158.459 141.069 160.756 141.069 163.12C141.069 165.484 140.285 167.781 138.842 169.65C137.28 171.114 134.938 171.897 131.725 171.897L131.738 171.974ZM131.674 157.182H127.296C127.288 157.207 127.288 157.234 127.296 157.259V168.815C127.285 168.844 127.285 168.876 127.296 168.905H131.546C134.003 168.905 135.68 168.443 136.666 167.428C137.683 166.194 138.171 164.606 138.022 163.011C138.096 162.229 138.015 161.439 137.785 160.688C137.554 159.936 137.178 159.238 136.678 158.633C135.744 157.593 134.106 157.105 131.661 157.105L131.674 157.182Z" fill="#FBFBF9"/>
</g>
<defs>
<clipPath id="clip0_2855_15099">
<rect width="192" height="172" fill="white"/>
</clipPath>
</defs>
</svg>
