<svg width="140" height="52" viewBox="0 0 140 52" fill="none" xmlns="http://www.w3.org/2000/svg">
<g clip-path="url(#clip0_2796_17621)">
<path d="M113.666 0.831383C122.517 17.6195 131.254 34.209 140 50.7945C138.395 51.3587 133.088 51.4898 127.284 51.1561C126.967 50.6236 126.576 50.0037 126.224 49.368C124.624 46.4673 123.01 43.5706 121.458 40.6501C121.018 39.8554 120.578 39.3984 119.497 39.4024C111.441 39.4421 103.386 39.4342 95.3133 39.4461C95.1034 39.4833 94.8985 39.5406 94.7021 39.617C92.6135 43.3839 90.4634 47.27 88.3572 51.0766C85.5256 51.3786 77.4351 51.319 75.5708 50.9614C76.094 49.8607 76.5689 48.768 77.1229 47.711C81.3323 39.7084 85.5505 31.7083 89.7775 23.7109C92.8553 17.8619 95.986 12.0248 99.0815 6.17976C99.8422 4.74929 100.568 3.3029 101.28 1.86051C101.391 1.5449 101.615 1.27154 101.917 1.08317C102.218 0.894805 102.58 0.802052 102.946 0.819451C106.486 0.847266 109.995 0.831383 113.666 0.831383ZM115.698 30.2354C114.414 27.8513 113.213 25.4672 111.846 23.1785C110.478 20.8897 109.617 18.3745 107.625 16.0778C106.631 17.8977 105.765 19.4831 104.899 21.0606C104.032 22.6381 103.14 24.1123 102.375 25.6739C101.61 27.2355 100.379 28.6699 99.996 30.4421C103.166 30.8275 114.137 30.7003 115.698 30.2354Z" fill="white"/>
<path d="M63.7077 51.1758H45.0645C44.9616 51.097 44.8646 51.012 44.7743 50.9215C44.7246 50.873 44.6924 50.812 44.6819 50.7466C44.6468 34.5346 44.6145 18.324 44.5852 2.11467C44.5852 1.79282 44.638 1.47097 44.6644 1.1809C46.2693 0.75971 53.1725 0.656398 56.1669 1.00607C56.5802 2.79018 56.3076 4.62991 56.3559 6.45375C56.4043 8.2776 56.3559 10.1611 56.3559 12.0167C56.3559 13.8723 56.3559 15.724 56.3559 17.5796C56.3559 19.3677 56.3559 21.1558 56.3559 22.9399V39.589C57.9213 37.9996 58.638 36.0525 59.6581 34.2684C60.6782 32.4843 61.6103 30.5691 62.5865 28.7055C63.5626 26.8419 64.5563 25.0141 65.528 23.1426C66.4998 21.271 67.4451 19.4273 68.4169 17.5796C69.3886 15.7319 70.3691 13.8803 71.3452 12.0167C72.3214 10.1531 73.3019 8.31734 74.2736 6.45375C75.2454 4.59017 76.2039 2.76236 77.1229 1.00209C79.5632 0.680235 87.425 0.723941 89.219 1.07361C80.7094 17.8021 72.2056 34.5029 63.7077 51.1758Z" fill="white"/>
<path d="M33.5311 51.1521H0.333875C-0.0442655 49.5627 -0.127809 3.4182 0.219553 1.11356C1.78488 0.763886 31.2227 0.688387 33.6938 1.0619C33.8345 3.77979 33.7729 6.54138 33.6938 9.31887C32.9859 9.87119 32.1417 9.63675 31.381 9.63675C25.1505 9.66059 18.9243 9.63675 12.6982 9.63675C11.8188 9.63675 10.9702 9.68047 10.3018 9.70034C10.0688 9.92683 10.0072 9.97054 9.96767 10.0222C9.92557 10.0766 9.89845 10.1392 9.88852 10.205C9.84748 20.197 9.80938 30.1918 9.7742 40.1892C9.7742 40.719 9.79179 41.2488 9.82696 41.7786C9.89428 41.9671 9.98734 42.1473 10.104 42.315H33.3596C33.8521 43.8528 33.94 48.6846 33.5311 51.1521Z" fill="white"/>
<path d="M33.7564 30.1763C31.2675 30.4902 22.7104 30.4505 20.7931 30.1087C20.7492 27.4026 20.7624 24.6487 20.7931 21.9266C22.4465 21.4975 31.2675 21.4379 33.7388 21.8472C33.8048 24.5533 33.7696 27.3032 33.7564 30.1763Z" fill="white"/>
</g>
<defs>
<clipPath id="clip0_2796_17621">
<rect width="140" height="50.5432" fill="white" transform="translate(-0.000244141 0.795898)"/>
</clipPath>
</defs>
</svg>
